<svg width="12" height="14" viewBox="0 0 12 14" fill="none" xmlns="http://www.w3.org/2000/svg">
<path d="M7.20731 1H4.79269C4.45421 1 4.13871 1.15805 3.95424 1.42001L1.16156 5.38596C1.05612 5.53569 1 5.71044 1 5.88902V10.0129C1 10.1562 1.03615 10.2975 1.10557 10.4257L2.22361 12.4897C2.393 12.8025 2.73926 13 3.11803 13H8.88197C9.26074 13 9.607 12.8025 9.77639 12.4897L10.8944 10.4257C10.9639 10.2975 11 10.1562 11 10.0129V5.88902C11 5.71044 10.9439 5.53569 10.8384 5.38596L8.04576 1.42001C7.86129 1.15805 7.54579 1 7.20731 1Z" stroke="url(#paint0_linear_659_395)" stroke-width="1.3"/>
<defs>
<linearGradient id="paint0_linear_659_395" x1="14" y1="-1" x2="-4.5" y2="14.5" gradientUnits="userSpaceOnUse">
<stop stop-color="#FFB800"/>
<stop offset="1" stop-color="#FF5C00"/>
</linearGradient>
</defs>
</svg>
