<svg width="16" height="38" viewBox="0 0 16 38" fill="none" xmlns="http://www.w3.org/2000/svg">
<path fill-rule="evenodd" clip-rule="evenodd" d="M15.4638 29.7997C15.7933 30.1292 15.7933 30.6635 15.4638 30.993L9.49758 36.9592C8.67382 37.783 7.33824 37.783 6.51448 36.9592L0.548262 30.993C0.218757 30.6635 0.218757 30.1292 0.548262 29.7997C0.877767 29.4702 1.412 29.4702 1.7415 29.7997L7.15666 35.2149L7.15666 27.8782C7.15652 27.872 7.15646 27.8657 7.15646 27.8594L7.15646 2.79659L1.74138 8.21167C1.41188 8.54117 0.877645 8.54117 0.548141 8.21167C0.218634 7.88216 0.218634 7.34793 0.548141 7.01842L6.51435 1.05221C7.33811 0.228447 8.6737 0.228446 9.49746 1.05221L15.4637 7.01841C15.7932 7.34792 15.7932 7.88215 15.4637 8.21165C15.1342 8.54116 14.5999 8.54116 14.2704 8.21165L8.84396 2.78519L8.84396 24.8874C8.84409 24.8937 8.84416 24.9 8.84416 24.9063L8.84416 35.2261L14.2706 29.7997C14.6001 29.4702 15.1343 29.4702 15.4638 29.7997Z" fill="white"/>
</svg>
