<svg width="24" height="17" viewBox="0 0 24 17" fill="none" xmlns="http://www.w3.org/2000/svg">
<path fill-rule="evenodd" clip-rule="evenodd" d="M20.354 0.190499L12 0L3.64599 0.190499C2.09798 0.225799 0.787266 1.35201 0.507367 2.88732C-0.169122 6.59803 -0.169122 10.402 0.507367 14.1127C0.787266 15.648 2.09798 16.7742 3.64599 16.8095L12 17L20.354 16.8095C21.902 16.7742 23.2127 15.648 23.4926 14.1127C24.1691 10.402 24.1691 6.59803 23.4926 2.88732C23.2127 1.35201 21.902 0.225799 20.354 0.190499ZM3.68544 1.94862L12 1.75902L20.3146 1.94862C21.0359 1.96507 21.6466 2.48983 21.777 3.20521C21.9553 4.18297 22.0837 5.16758 22.1624 6.15522H1.8376C1.91628 5.16758 2.04474 4.18297 2.22299 3.20521C2.35341 2.48983 2.96414 1.96507 3.68544 1.94862ZM1.74436 8.49999C1.74436 10.2723 1.9039 12.0445 2.22299 13.7948C2.35341 14.5102 2.96414 15.0349 3.68544 15.0514L12 15.241L20.3146 15.0514C21.0359 15.0349 21.6466 14.5102 21.777 13.7948C22.0961 12.0445 22.2556 10.2723 22.2556 8.49999H1.74436Z" fill="url(#paint0_linear_690_526)"/>
<defs>
<linearGradient id="paint0_linear_690_526" x1="24" y1="0" x2="-3.43396" y2="18.1346" gradientUnits="userSpaceOnUse">
<stop stop-color="#00F0FF"/>
<stop offset="0.489583" stop-color="#0075FF"/>
<stop offset="1" stop-color="#001AFF"/>
</linearGradient>
</defs>
</svg>
