<svg width="9" height="8" viewBox="0 0 9 8" fill="none" xmlns="http://www.w3.org/2000/svg">
<path fill-rule="evenodd" clip-rule="evenodd" d="M7.97789 1.18766H2.22265L1.73091 0.306245C1.67571 0.20731 1.5713 0.145996 1.45801 0.145996H0.833008C0.660419 0.145996 0.520508 0.285907 0.520508 0.458496C0.520508 0.631085 0.660419 0.770996 0.833008 0.770996H1.27451L1.7598 1.64085L2.87899 4.1172L2.88014 4.11972L2.97872 4.33784L1.85504 5.53643C1.77424 5.62261 1.74895 5.74699 1.78967 5.85788C1.83039 5.96878 1.93016 6.04723 2.04753 6.06064L3.07175 6.1777C4.35287 6.32411 5.64649 6.32411 6.92761 6.1777L7.95183 6.06064C8.1233 6.04105 8.24642 5.88615 8.22683 5.71468C8.20723 5.54321 8.05234 5.42009 7.88087 5.43968L6.85664 5.55674C5.62268 5.69776 4.37668 5.69776 3.14272 5.55674L2.73625 5.51029L3.561 4.63056C3.56897 4.62205 3.57638 4.61321 3.58323 4.6041L3.8969 4.64491C4.33645 4.7021 4.78077 4.71332 5.22264 4.67837C6.25325 4.59686 7.20843 4.10645 7.87529 3.31644L8.11615 3.0311C8.12424 3.02152 8.13174 3.01146 8.13862 3.00097L8.58753 2.31687C8.90572 1.83196 8.55787 1.18766 7.97789 1.18766ZM3.60646 3.97685C3.53753 3.96788 3.4781 3.9241 3.44908 3.86101L3.44853 3.85979L2.52332 1.81266H7.9779C8.06075 1.81266 8.11044 1.90471 8.06499 1.97398L7.62641 2.64234L7.39769 2.9133C6.83851 3.57574 6.03757 3.98696 5.17336 4.05531C4.77479 4.08684 4.37402 4.07672 3.97754 4.02513L3.60646 3.97685Z" fill="white"/>
<path d="M2.70801 6.7085C2.36283 6.7085 2.08301 6.98832 2.08301 7.3335C2.08301 7.67867 2.36283 7.9585 2.70801 7.9585C3.05319 7.9585 3.33301 7.67867 3.33301 7.3335C3.33301 6.98832 3.05319 6.7085 2.70801 6.7085Z" fill="white"/>
<path d="M6.66634 7.3335C6.66634 6.98832 6.94616 6.7085 7.29134 6.7085C7.63652 6.7085 7.91634 6.98832 7.91634 7.3335C7.91634 7.67867 7.63652 7.9585 7.29134 7.9585C6.94616 7.9585 6.66634 7.67867 6.66634 7.3335Z" fill="white"/>
</svg>
