<?xml version="1.0" encoding="UTF-8"?>
<svg id="Calque_1" data-name="Calque 1" xmlns="http://www.w3.org/2000/svg" viewBox="0 0 156.28 171.91">
  <defs>
    <style>
      .cls-1 {
        fill:#FFFFFF;
      }
    </style>
  </defs>
  <path class="cls-1" d="M35.29,43.03C35.29,19.27,54.47,0,78.14,0s42.85,19.27,42.85,43.03-19.18,43.03-42.85,43.03-42.85-19.27-42.85-43.03ZM78.14,15.19c-15.31,0-27.73,12.47-27.73,27.84s12.41,27.84,27.73,27.84,27.73-12.47,27.73-27.84-12.41-27.84-27.73-27.84Z"/>
  <path class="cls-1" d="M37.81,116.43c-12.53,0-22.69,10.2-22.69,22.78v12.03c0,.18,.13,.34,.31,.37,41.53,6.81,83.88,6.81,125.41,0,.18-.03,.31-.19,.31-.37v-12.03c0-12.58-10.16-22.78-22.69-22.78h-3.44c-.27,0-.53,.04-.78,.13l-8.73,2.86c-17.79,5.83-36.98,5.83-54.77,0l-8.73-2.86c-.25-.08-.52-.13-.78-.13h-3.44ZM0,139.21c0-20.97,16.93-37.97,37.81-37.97h3.44c1.86,0,3.71,.3,5.48,.88l8.73,2.86c14.74,4.83,30.64,4.83,45.38,0l8.73-2.86c1.77-.58,3.62-.88,5.48-.88h3.44c20.88,0,37.81,17,37.81,37.97v12.03c0,7.63-5.5,14.13-13,15.36-43.14,7.07-87.14,7.07-130.28,0-7.5-1.23-13-7.73-13-15.36v-12.03Z"/>
</svg>