<?xml version="1.0" encoding="UTF-8"?>
<svg id="Calque_1" data-name="Calque 1" xmlns="http://www.w3.org/2000/svg" viewBox="0 0 155.05 155.05">
  <defs>
    <style>
      .cls-1 {
        fill:#FFFFFF;
      }
    </style>
  </defs>
  <path class="cls-1" d="M71.56,12.19C38.13,15.21,11.93,43.31,11.93,77.53c0,36.23,29.37,65.6,65.6,65.6,18.46,0,35.13-7.62,47.06-19.9l-50.81-41.06c-1.4-1.13-2.22-2.84-2.22-4.64V12.19Zm11.93,0v59.37h59.37c-2.84-31.47-27.9-56.53-59.37-59.37Zm59.37,71.29h-48.47l37.7,30.47c5.93-8.87,9.76-19.26,10.77-30.47ZM0,77.53C0,34.71,34.71,0,77.53,0s77.53,34.71,77.53,77.53c0,18.46-6.46,35.42-17.23,48.73-14.2,17.55-35.94,28.79-60.3,28.79C34.71,155.05,0,120.34,0,77.53Z"/>
</svg>