<?xml version="1.0" encoding="UTF-8"?><svg id="Calque_2" xmlns="http://www.w3.org/2000/svg" viewBox="0 0 724.16 694.65"><defs><style>.cls-1{fill:#fff;}</style></defs><path class="cls-1" d="M361.47,694.65h-.12c-37.97-.04-71.78-19.81-90.44-52.89L16.41,190.57c-22.21-39.37-21.86-86.17,.93-125.19C41.25,24.44,84.51,0,133.04,0h458.07c48.59,0,91.87,24.49,115.77,65.5,22.77,39.09,23.05,85.93,.73,125.3l-255.71,451.15c-18.7,33-52.51,52.69-90.43,52.69Zm49.62-75.83h0ZM133.04,93.84c-14.81,0-27.77,7.06-34.67,18.87-3.45,5.9-8.06,17.87-.23,31.76l254.51,451.19c2.4,4.25,6.11,5.15,8.8,5.15h.01c2.69,0,6.4-.89,8.8-5.13l255.71-451.15c7.87-13.89,3.27-25.88-.18-31.79-6.9-11.84-19.87-18.9-34.69-18.9H133.04Z"/></svg>