<svg width="16" height="14" viewBox="0 0 16 14" fill="none" xmlns="http://www.w3.org/2000/svg">
<path d="M3.28033 1.28033C3.57322 0.987437 3.57322 0.512563 3.28033 0.21967C2.98744 -0.0732233 2.51256 -0.0732233 2.21967 0.21967L0.21967 2.21967C-0.0732233 2.51256 -0.0732233 2.98744 0.21967 3.28033L2.21967 5.28033C2.51256 5.57322 2.98744 5.57322 3.28033 5.28033C3.57322 4.98744 3.57322 4.51256 3.28033 4.21967L2.56066 3.5H12.75C13.1642 3.5 13.5 3.16421 13.5 2.75C13.5 2.33579 13.1642 2 12.75 2H2.56066L3.28033 1.28033Z" fill="black"/>
<path d="M12.2197 8.21967C11.9268 8.51256 11.9268 8.98744 12.2197 9.28033L12.9393 10H2.75C2.33579 10 2 10.3358 2 10.75C2 11.1642 2.33579 11.5 2.75 11.5H12.9393L12.2197 12.2197C11.9268 12.5126 11.9268 12.9874 12.2197 13.2803C12.5126 13.5732 12.9874 13.5732 13.2803 13.2803L15.2803 11.2803C15.5732 10.9874 15.5732 10.5126 15.2803 10.2197L13.2803 8.21967C12.9874 7.92678 12.5126 7.92678 12.2197 8.21967Z" fill="black"/>
</svg>
