<svg width="20" height="19" viewBox="0 0 20 19" fill="none" xmlns="http://www.w3.org/2000/svg">
<path fill-rule="evenodd" clip-rule="evenodd" d="M11.155 0.360262C10.4839 0.00999263 9.57446 0.00458798 8.89799 0.353955C6.30503 1.6931 3.95316 3.22853 1.89218 4.93154C1.57347 5.19489 1.34729 5.57758 1.35115 6.02802C1.355 6.47662 1.58578 6.85419 1.90255 7.1132C3.9464 8.78438 6.30021 10.3212 8.8457 11.6497C9.51682 12 10.4262 12.0054 11.1027 11.656C13.6957 10.3169 16.0475 8.78147 18.1085 7.07846C18.4272 6.8151 18.6534 6.43242 18.6495 5.98197C18.6457 5.53338 18.4149 5.1558 18.0981 4.89679C16.0543 3.22562 13.7005 1.6888 11.155 0.360262ZM9.5863 1.68671C9.82596 1.56294 10.2197 1.56411 10.4609 1.69004C12.8903 2.95796 15.1287 4.41666 17.0679 5.99223C15.1171 7.59315 12.8854 9.04714 10.4144 10.3233C10.1747 10.4471 9.78103 10.4459 9.53974 10.32C7.1104 9.05204 4.872 7.59333 2.93277 6.01777C4.88357 4.41684 7.11532 2.96285 9.5863 1.68671Z" fill="black"/>
<path d="M19.1974 9.69803C19.4167 10.0494 19.3097 10.512 18.9584 10.7314L12.8511 14.5443C12.0224 15.0617 10.9942 15.3009 10.0003 15.301C9.00632 15.301 7.97806 15.0619 7.1492 14.5446L1.10887 10.7749C0.75748 10.5556 0.650399 10.093 0.869703 9.74156C1.08901 9.39016 1.55165 9.28308 1.90305 9.50239L7.94338 13.2721C8.48753 13.6117 9.22672 13.801 10.0002 13.801C10.7736 13.8009 11.5127 13.6116 12.0568 13.2719L18.164 9.45902C18.5154 9.23966 18.978 9.34667 19.1974 9.69803Z" fill="black"/>
<path d="M19.1973 13.4527C19.4167 13.804 19.3098 14.2667 18.9584 14.4861L13.6695 17.7889C12.6119 18.4494 11.2889 18.7602 10.0002 18.7602C8.7115 18.7603 7.38844 18.4497 6.33066 17.7894L1.1088 14.5296C0.757429 14.3102 0.650404 13.8476 0.869751 13.4962C1.0891 13.1448 1.55175 13.0378 1.90312 13.2572L7.12499 16.517C7.898 16.9995 8.93193 17.2603 10.0001 17.2602C11.0683 17.2602 12.1022 16.9993 12.875 16.5167L18.1639 13.2138C18.5152 12.9944 18.9779 13.1013 19.1973 13.4527Z" fill="black"/>
</svg>
